# xmcd
# 
# Track frame offsets:
#     150
#     15247
#     41109
#     53749
#     62412
#     80562
#     103774
#     147612
#     208290
#     252480
#     267000
# 
# Disc length: 3820
# 
# Revision: 8
# Processed by: cddbd v1.5.2PL0 Copyright (c) Steve Scherf et al.
# Submitted via: fre:ac v1.0.17
# 
DISCID=9d0eea0b
DTITLE=Emerson, Lake and Palmer - WORKS VOLUME 1 [CD2]
DYEAR=1977
DGENRE=Progressive Rock
TTITLE0=The Enemy God Dances With The Black Spirits
TTITLE1=L.A. Nights
TTITLE2=New Orleans
TTITLE3=Two Part Invention In D Minor
TTITLE4=Food For Your Soul
TTITLE5=Tank
TTITLE6=Fanfare For The Common Man
TTITLE7=Pirates
TTITLE8=Tank (LIVE INDIANA 24.1.78)
TTITLE9=The Enemy God Dances With The Black Spirits (LIVE INDIANA 24.1.78)
TTITLE10=Nutrocker (LIVE INDIANA 24.1.78)
EXTD=YEAR: 1977
EXTT0=
EXTT1=
EXTT2=
EXTT3=
EXTT4=
EXTT5=
EXTT6=
EXTT7=
EXTT8=
EXTT9=
EXTT10=
PLAYORDER=
